<svg xmlns="http://www.w3.org/2000/svg" width="640" height="200" viewBox="0 0 640 200">
  <defs>
    <linearGradient id="g" x1="0" x2="1" y1="0" y2="1">
      <stop offset="0%" stop-color="#4da3ff"/>
      <stop offset="100%" stop-color="#59d3a6"/>
    </linearGradient>
    <style>
      .word{font-family: Inter, Arial, sans-serif; font-weight: 700; letter-spacing: 0.5px}
      .small{font-family: Inter, Arial, sans-serif; font-size: 24px; fill:#dbe7ff; opacity:0.9}
    </style>
  </defs>
  <rect width="640" height="200" rx="18" fill="#0b0e14"/>
  <g transform="translate(24,24)">
    <!-- Monogram D inside hexagon -->
    <g transform="translate(0,0)">
      <path d="M64 0l55 32v64l-55 32-55-32V32z" fill="url(#g)"/>
      <path d="M40 38h32c18 0 30 12 30 26s-12 26-30 26H40z" fill="#0b0e14"/>
      <path d="M56 54h16c9 0 14 5 14 10s-5 10-14 10H56z" fill="url(#g)"/>
    </g>
    <g transform="translate(140,20)">
      <text class="word" x="0" y="52" font-size="44" fill="#e6f0ff">Donga</text>
      <text class="word" x="180" y="52" font-size="44" fill="url(#g)">Multi‑Sector</text>
      <text class="word" x="0" y="100" font-size="40" fill="#cfe7ff">Solutions</text>
      <text class="small" x="2" y="132">Engineering & ICT</text>
    </g>
  </g>
</svg>